<svg xmlns="http://www.w3.org/2000/svg" xmlns:xlink="http://www.w3.org/1999/xlink" fill="none" version="1.1" width="315" height="104.9993896484375" viewBox="0 0 315 104.9993896484375"><defs><linearGradient x1="0.5" y1="0" x2="0.5" y2="1" id="master_svg0_78_47346"><stop offset="0%" stop-color="#268EFF" stop-opacity="1"/><stop offset="100%" stop-color="#0036E6" stop-opacity="1"/></linearGradient><linearGradient x1="0.5" y1="0" x2="0.5" y2="1" id="master_svg1_78_47346"><stop offset="0%" stop-color="#268EFF" stop-opacity="1"/><stop offset="100%" stop-color="#0036E6" stop-opacity="1"/></linearGradient></defs><g><g><path d="M54.955685,0.05685324843750017Q53.85302,0.005219948437500399,52.749161,-0.0000190515625000387L52.720684,5.9999133229175Q53.698391,6.0045534651375,54.675037,6.0502861884375L54.955685,0.05685324843750017ZM57.658226,6.2863751984375Q56.662617,6.1752469284375,55.663147,6.1071004084375L56.071297,0.12099834843750035Q57.199738,0.19793894843749982,58.323803,0.32340524843750007L57.658226,6.2863751984375ZM60.688042,6.7259697284375Q59.679451,6.5455511784375,58.663895,6.4097335384375L59.459236,0.4626812484374998Q60.605827,0.6160230484375004,61.74456,0.8197212484375003L60.688042,6.7259697284375ZM63.58746,7.3405784484375Q62.629772,7.1054457484375,61.662979,6.9111256584375L62.845291,1.0287675484375Q63.936859,1.2481651484374998,65.018112,1.5136384484374998L63.58746,7.3405784484375ZM66.477573,8.149897548437501Q65.520393,7.8482240484375,64.551086,7.5881291484375L66.106068,1.7931280484374996Q67.200451,2.0867850484375,68.281128,2.4273803484375L66.477573,8.149897548437501ZM69.354359,9.1614086484375Q68.404308,8.791928748437499,67.438976,8.4644377484375L69.366592,2.7825093484375Q70.456474,3.1522564484375,71.529114,3.5694098484375L69.354359,9.1614086484375ZM72.095039,10.3296790484375Q71.195663,9.9117655484375,70.279289,9.5325775484375L72.573402,3.9884791484375Q73.607948,4.4165653484375,74.623413,4.8884186484375L72.095039,10.3296790484375ZM74.7752,11.6819248484375Q73.895004,11.2015795484375,72.994926,10.7596244484375L75.639412,5.3738365184375Q76.655624,5.8728072384375,77.649452,6.4151763884375L74.7752,11.6819248484375ZM77.386314,13.219351248437501Q76.531616,12.6778507484375,75.654182,12.1740398484375L78.641792,6.9707522384375Q79.632477,7.5395808484375,80.597473,8.1509709484375L77.386314,13.219351248437501ZM79.869354,14.9072580484375Q79.062897,14.3201074484375,78.232002,13.768082648437499L81.552269,8.7704973484375Q82.490395,9.3937664484375,83.400902,10.0566735484375L79.869354,14.9072580484375ZM82.239296,16.7527196484375Q81.468811,16.111720648437498,80.671425,15.5045146484375L84.306427,10.7309665484375Q85.206718,11.416528248437501,86.07663,12.1402463484375L82.239296,16.7527196484375ZM84.491608,18.7534676484375Q83.762344,18.062118648437497,83.003899,17.4029186484375L86.939857,12.8743181484375Q87.796219,13.618608948437501,88.619568,14.3991622484375L84.491608,18.7534676484375ZM86.611397,20.8977666484375Q85.928131,20.1602336484375,85.213623,19.452920648437498L89.434769,15.1888885484375Q90.241379,15.9873847484375,91.012856,16.8201296484375L86.611397,20.8977666484375ZM88.585419,23.1720566484375Q87.952324,22.3930756484375,87.286209,21.6421406484375L91.77475,17.6605506484375Q92.526794,18.508346648437502,93.241623,19.3879096484375L88.585419,23.1720566484375ZM90.402283,25.5611876484375Q89.822899,24.7459886484375,89.209,23.9564536484375L93.945625,20.2734686484375Q94.638786,21.1649326484375,95.292908,22.0852856484375L90.402283,25.5611876484375ZM92.065857,28.0700396484375Q91.53688,27.2133106484375,90.971313,26.3802796484375L95.935318,23.0100226484375Q96.573891,23.9505636484375,97.171143,24.9178906484375L92.065857,28.0700396484375ZM93.570778,30.6947686484375Q93.098381,29.8049776484375,92.587891,28.9364796484375L97.760567,25.8961676484375Q98.336853,26.8766406484375,98.870193,27.8811986484375L93.570778,30.6947686484375ZM94.889824,33.3851796484375Q94.479851,32.4759886484375,94.031281,31.5852106484375L99.390137,28.8865736484375Q99.896675,29.8924336484375,100.359497,30.9188636484375L94.889824,33.3851796484375ZM96.03215,36.1530796484375Q95.679962,35.215169648437495,95.287712,34.293296648437504L100.808708,31.9441206484375Q101.251556,32.9849016484375,101.649208,34.0438956484375L96.03215,36.1530796484375ZM97.007584,39.0336986484375Q96.714661,38.0655026484375,96.379906,37.1109576484375L102.04184,35.1253756484375Q102.419746,36.202983648437495,102.750488,37.2961306484375L97.007584,39.0336986484375ZM97.781487,41.9241026484375Q97.555229,40.9552956484375,97.287735,39.9970516484375L103.066803,38.3838616484375Q103.36879,39.4656946484375,103.624252,40.5594866484375L97.781487,41.9241026484375ZM98.366669,44.8509516484375Q98.202202,43.8646736484375,97.995491,42.8863756484375L103.865891,41.6460416484375Q104.099228,42.7504196484375,104.284935,43.8639946484375L98.366669,44.8509516484375ZM98.769371,47.8738596484375Q98.668587,46.8657566484375,98.523994,45.8630026484375L104.462578,45.0067286484375Q104.625832,46.1389386484375,104.739609,47.2769466484375L98.769371,47.8738596484375ZM98.970627,50.8469276484375Q98.935463,49.8579106484375,98.858246,48.8712886484375L104.839943,48.4030916484375Q104.927132,49.5169986484375,104.966835,50.6337356484375L98.970627,50.8469276484375ZM98.959061,54.4502216484375Q99,53.4752346484375,99,52.4993896484375Q99,52.1616406484375,98.995094,51.8239286484375L104.994461,51.7367786484375Q105,52.1180836484375,105,52.4993896484375Q105.000008,53.6011926484375,104.953789,54.7019386484375L98.959061,54.4502216484375ZM98.737946,57.4291416484375Q98.843964,56.4347726484375,98.907127,55.4367676484375L104.895142,55.8157956484375Q104.823814,56.9426766484375,104.70414,58.0652006484375L98.737946,57.4291416484375ZM98.314201,60.4560656484375Q98.489235,59.4482386484375,98.619781,58.4336856484375L104.570724,59.1993296484375Q104.423355,60.3447346484375,104.2257,61.4827806484375L98.314201,60.4560656484375ZM97.712143,63.3673246484375Q97.942299,62.4098586484375,98.131706,61.4435076484375L104.019676,62.5975986484375Q103.805824,63.6886216484375,103.545959,64.7696766484375L97.712143,63.3673246484375ZM96.918022,66.25763364843749Q97.214584,65.3001866484375,97.46962,64.3308526484375L103.272156,65.8574756484375Q102.98423,66.95185864843751,102.649368,68.03292064843751L96.918022,66.25763364843749ZM95.921982,69.13613864843751Q96.286285,68.1853026484375,96.60862,67.2194326484375L102.300041,69.1188426484375Q101.93618,70.2091296484375,101.524857,71.2827296484375L95.921982,69.13613864843751ZM94.764771,71.8885426484375Q95.17791,70.9879686484375,95.552315,70.0706176484375L101.107468,72.3378376484375Q100.684776,73.3735126484375,100.218277,74.3903886484375L94.764771,71.8885426484375ZM93.426735,74.5731816484375Q93.902374,73.6913066484375,94.339584,72.7897646484375L99.738297,75.4077526484375Q99.244568,76.4258956484375,98.707535,77.4215466484375L93.426735,74.5731816484375ZM91.903221,77.1902006484375Q92.44014,76.3333506484375,92.939308,75.4539646484375L98.157333,78.4157486484375Q97.593719,79.4087066484375,96.987465,80.3761746484375L91.903221,77.1902006484375ZM90.225693,79.6843566484375Q90.808632,78.8753886484375,91.356354,78.0421676484375L96.370071,81.3380356484375Q95.751694,82.2787246484375,95.093521,83.1920926484375L90.225693,79.6843566484375ZM88.392448,82.0625836484375Q89.029465,81.2891766484375,89.632584,80.4890516484375L94.423935,84.1005556484375Q93.742943,85.0040206484375,93.023643,85.8772816484375L88.392448,82.0625836484375ZM86.403114,84.3243636484375Q87.090775,83.5917966484375,87.746155,82.8302156484375L92.294044,86.7438736484375Q91.554153,87.6036686484375,90.777695,88.4308246484375L86.403114,84.3243636484375ZM84.269264,86.4547116484375Q85.003448,85.7677916484375,85.70726,85.0497746484375L89.992096,89.2497936484375Q89.197418,90.0605166484375,88.368507,90.8360596484375L84.269264,86.4547116484375ZM82.004333,88.4402316484375Q82.78035,87.8031916484375,83.528145,87.1332546484375L87.531738,91.6021726484375Q86.687439,92.3585586484375,85.811356,93.0777516484375L82.004333,88.4402316484375ZM79.623367,90.2693936484375Q80.436005,89.6858216484375,81.222786,89.0678406484375L84.929031,93.7862856484375Q84.040642,94.4840926484375,83.123123,95.1429676484375L79.623367,90.2693936484375ZM77.125526,91.9434436484375Q77.978012,91.4112246484375,78.806717,90.8426666484375L82.201118,95.7901916484375Q81.265579,96.4320526484375,80.30304,97.0329896484375L77.125526,91.9434436484375ZM74.506561,93.4623186484375Q75.394623,92.9852216484375,76.261169,92.4700846484375L79.327095,97.6276096484375Q78.348633,98.2092666484375,77.346184,98.7478256484375L74.506561,93.4623186484375ZM71.820473,94.7956006484375Q72.728409,94.3808596484375,73.617722,93.9275436484375L76.342468,99.2731776484375Q75.338455,99.7849346484375,74.31356,100.2531276484375L71.820473,94.7956006484375ZM69.064171,95.9491116484375Q69.99688,95.5935366484375,70.913475,95.1982646484375L73.289337,100.7078326484375Q72.254494,101.1540836484375,71.201523,101.5555116484375L69.064171,95.9491116484375ZM66.185123,96.9399946484375Q67.15300400000001,96.6419446484375,68.106987,96.3020396484375L70.120872,101.9539646484375Q69.043671,102.3377916484375,67.95080200000001,102.6743006484375L66.185123,96.9399946484375ZM63.294773,97.7290576484375Q64.263756,97.4977946484375,65.22194300000001,97.2252426484375L66.86353700000001,102.9963076484375Q65.781677,103.3040466484375,64.687603,103.5651546484375L63.294773,97.7290576484375ZM60.379593,98.3269116484375Q61.359943,98.1583556484375,62.332188,97.9480206484375L63.600918,103.8123476484375Q62.503075,104.0498656484375,61.396236,104.2401576484375L60.379593,98.3269116484375ZM57.353653,98.7453846484375Q58.362965,98.6394576484375,59.366695,98.4895936484375L60.252758,104.4238056484375Q59.119419,104.5930256484375,57.979866,104.7126156484375L57.353653,98.7453846484375ZM54.376175,98.9615246484375Q55.366837,98.9215236484375,56.354889,98.8393246484375L56.852375,104.8186566484375Q55.73674,104.9114756484375,54.618198,104.9566346484375L54.376175,98.9615246484375ZM51.454357,98.9876326484375Q51.977112,98.9993896484375,52.5,98.9993896484375Q52.948757,98.9993896484375,53.397434,98.9907306484375L53.51321,104.9896166484375Q53.006817,104.9993896484375,52.5,104.9993896484375Q51.909668,104.9993816484375,51.31945,104.9861066484375L51.454357,98.9876326484375ZM48.493744,98.8264846484375Q49.482735,98.9120106484375,50.474476,98.9552536484375L50.21315,104.9495616484375Q49.093418,104.9007496484375,47.976803,104.8041836484375L48.493744,98.8264846484375ZM45.479652,98.4663846484375Q46.484013,98.6197736484375,47.494118,98.7291566484375L46.848248,104.6942906484375Q45.707733,104.5708006484375,44.573734,104.3975986484375L45.479652,98.4663846484375ZM42.521648,97.9161526484375Q43.489838,98.1288676484375,44.466209,98.3001326484375L43.429577,104.2098996484375Q42.32711,104.0165176484375,41.234093,103.7763676484375L42.521648,97.9161526484375ZM39.631672,97.1833496484375Q40.589806,97.4592746484375,41.558887,97.6938786484375L40.147179,103.5254366484375Q39.05307,103.2605746484375,37.971222,102.9490126484375L39.631672,97.1833496484375ZM36.747395999999995,96.2498776484375Q37.700993,96.5932316484375,38.668644,96.8946986484375L36.883922999999996,102.6231236484375Q35.791443,102.2827526484375,34.714773,101.8950886484375L36.747395999999995,96.2498776484375ZM33.948418000000004,95.1384426484375Q34.861473000000004,95.5356976484375,35.790695,95.8935016484375L33.634714,101.4927596484375Q32.585451,101.0887446484375,31.554632,100.6402436484375L33.948418000000004,95.1384426484375ZM31.246796,93.8581996484375Q32.135101,94.3146816484375,33.042189,94.7325976484375L30.531458,100.1820216484375Q29.507298,99.7101596484375,28.504463,99.1948316484375L31.246796,93.8581996484375ZM28.60693,92.3913806484375Q29.472157,92.9096066484375,30.359037,93.3898236484375L27.502089,98.6659926484375Q26.500845,98.1238406484375,25.523989,97.5387646484375L28.60693,92.3913806484375ZM26.068527,90.7567746484375Q26.894329,91.3273086484375,27.743979,91.8616716484375L24.549557,96.9406276484375Q23.590471,96.3374096484375,22.658089,95.6932606484375L26.068527,90.7567746484375ZM23.657665,88.9736256484375Q24.4426,89.5943146484375,25.253511,90.1806716484375L21.737873999999998,95.0428006484375Q20.822321000000002,94.3807986484375,19.936036,93.6799466484375L23.657665,88.9736256484375ZM21.358354,87.0312266484375Q22.104031,87.7036976484375,22.878042,88.3433536484375L19.055880000000002,92.9683986484375Q18.181933,92.2461626484375,17.340042,91.4869156484375L21.358354,87.0312266484375ZM19.186014999999998,84.9405436484375Q19.887473,85.6608736484375,20.619411,86.3502116484375L16.505788000000003,90.7180636484375Q15.6794243,89.9397966484375,14.8874264,89.1264876484375L19.186014999999998,84.9405436484375ZM17.154559,82.7144466484375Q17.807378,83.4781116484375,18.49257,84.2128676484375L14.1045351,88.3049546484375Q13.3309307,87.4754026484375,12.5938239,86.6131206484375L17.154559,82.7144466484375ZM15.2761383,80.3675456484375Q15.8765182,81.1694796484375,16.510879,81.9448166484375L11.867113100000001,85.7442166484375Q11.1509032,84.8688356484375,10.473070100000001,83.9634556484375L15.2761383,80.3675456484375ZM13.5604343,77.9151386484375Q14.1054726,78.7501906484375,14.6858072,79.5611116484375L9.8065615,83.0529476484375Q9.1513143,82.1373516484375,8.5359845,81.1946106484375L13.5604343,77.9151386484375ZM11.985321500000001,75.3206706484375Q12.4813805,76.2013246484375,13.015237800000001,77.0595936484375L7.9204469,80.2286836484375Q7.3176860999999995,79.2596516484375,6.75760412,78.2653276484375L11.985321500000001,75.3206706484375ZM10.594477699999999,72.6532286484375Q11.0285182,73.5557176484375,11.5010109,74.4386906484375L6.21082067,77.2695696484375Q5.67732871,76.2726136484375,5.1873107,75.2537226484375L10.594477699999999,72.6532286484375ZM9.3912914,69.93180864843751Q9.7625086,70.8497926484375,10.1724682,71.7511446484375L4.7108521,74.2352446484375Q4.2480148,73.2176356484375,3.8288779,72.1811526484375L9.3912914,69.93180864843751ZM8.3429277,67.0734406484375Q8.6618237,68.0396466484375,9.0226777,68.9909786484375L3.4127176,71.1189656484375Q3.0052662,70.0448146484375,2.6452262,68.95391864843751L8.3429277,67.0734406484375ZM7.4921212,64.1844596484375Q7.7437822999999995,65.1537936484375,8.0369437,66.1113926484375L2.2997687,67.8677676484375Q1.9687858,66.7866176484375,1.6846538000000004,65.69222264843751L7.4921212,64.1844596484375ZM6.83995157,61.2976836484375Q7.026098,62.2637176484375,7.2529367,63.2210156484375L1.4145931999999997,64.6044086484375Q1.1585031,63.5236286484375,0.9483385000000002,62.4329836484375L6.83995157,61.2976836484375ZM6.36080143,58.2807696484375Q6.4878411,59.2946276484375,6.65929359,60.3019296484375L0.7443681,61.3087236484375Q0.5507869999999997,60.1714326484375,0.40735670000000024,59.0267376484375L6.36080143,58.2807696484375ZM6.083599292,55.2864566484375Q6.14346471,56.2834666484375,6.24608618,57.2769886484375L0.2778400999999997,57.8934626484375Q0.16197350000000021,56.7717286484375,0.09438659999999999,55.6460606484375L6.083599292,55.2864566484375ZM6.00023257053,52.3523216484375Q6,52.4258536484375,6,52.4993896484375Q5.999999999999989,53.4005166484375,6.034912799,54.3009646484375L0.03941579999999956,54.5334166484375Q0,53.5167926484375,0,52.4993896484375L0.00024029999999974905,52.3428346484375L6.00023257053,52.3523216484375ZM6.10263811,49.4115406484375Q6.037211955,50.3946186484375,6.013485325,51.3795886484375L0.015225400000000278,51.2350996484375Q0.04201359999999976,50.1230396484375,0.11588189999999976,49.0131076484375L6.10263811,49.4115406484375ZM6.40016955,46.4120556484375Q6.26808578,47.4123346484375,6.17951432,48.4174046484375L0.20267769999999974,47.8906976484375Q0.30267670000000013,46.7559466484375,0.4518050999999996,45.6265906484375L6.40016955,46.4120556484375ZM6.89713073,43.4093776484375Q6.69928145,44.4019506484375,6.5448069,45.4021916484375L0.6151046999999998,44.4864196484375Q0.7895121999999999,43.3571126484375,1.0128908,42.2364696484375L6.89713073,43.4093776484375ZM7.5691595,40.5215106484375Q7.3137146,41.4797246484375,7.0993538,42.4479556484375L1.2412047,41.1510006484375Q1.4832253,40.0578306484375,1.7716317000000004,38.9759746484375L7.5691595,40.5215106484375ZM8.4403598,37.6333846484375Q8.117898499999999,38.5890926484375,7.8371817,39.5578806484375L2.0742388,37.8880046484375Q2.3911815,36.7941966484375,2.7552428,35.7151946484375L8.4403598,37.6333846484375ZM9.5045619,34.7894406484375Q9.119693999999999,35.7238066484375,8.7757809,36.674009648437504L3.1339436,34.6320346484375Q3.5222254,33.559236648437505,3.956764,32.5042836484375L9.5045619,34.7894406484375ZM10.726834799999999,32.0726256484375Q10.289606599999999,32.9667666484375,9.8910391,33.8787976484375L4.3931074,31.4761426484375Q4.8431048,30.4464266484375,5.33674955,29.4369126484375L10.726834799999999,32.0726256484375ZM12.1365371,29.4117126484375Q11.6371808,30.2847216484375,11.1760383,31.1785026484375L5.84391594,28.4274156484375Q6.36455482,27.4183196484375,6.92834854,26.4326576484375L12.1365371,29.4117126484375ZM13.7268872,26.8304256484375Q13.1686134,27.6737006484375,12.647531,28.5404506484375L7.5052819,25.4489666484375Q8.0935957,24.4703906484375,8.7238998,23.5183086484375L13.7268872,26.8304256484375ZM15.4591055,24.3885006484375Q14.8550386,25.1844616484375,14.2857218,26.0056366484375L9.3548613,22.5870666484375Q9.9976115,21.6599786484375,10.6796227,20.7613056484375L15.4591055,24.3885006484375ZM17.353521999999998,22.0531236484375Q16.696612000000002,22.8114456484375,16.073022,23.5973966484375L11.372757400000001,19.868118648437502Q12.0768189,18.9807416484375,12.818499599999999,18.1245646484375L17.353521999999998,22.0531236484375ZM19.399827000000002,19.840109648437497Q18.693779,20.5556896484375,18.019316,21.3011136484375L13.570179,17.275550648437502Q14.3316889,16.4339136484375,15.1288528,15.6259937484375L19.399827000000002,19.840109648437497ZM21.58569,17.7638826484375Q20.834859,18.432115648437502,20.113605,19.1321686484375L15.9347343,14.8267021484375Q16.749043,14.0363369484375,17.596729,13.281897548437499L21.58569,17.7638826484375ZM23.897028,15.8371486484375Q23.106316,16.4540416484375,22.342937,17.1044526484375L18.451681,12.537384548437501Q19.313585,11.8030209484375,20.206343,11.1065201484375L23.897028,15.8371486484375ZM26.318279,14.0706577484375Q25.49304,14.6328973484375,24.692699,15.2300443484375L21.104653,10.4211082484375Q22.00827,9.7469019484375,22.939987,9.1121158484375L26.318279,14.0706577484375ZM28.870935,12.4504537484375Q27.998285,12.965321048437499,27.148891,13.5177106484375L23.877758,8.4878311484375Q24.836775,7.8641443484375,25.822052,7.2828331484375L28.870935,12.4504537484375ZM31.517916,11.0023765484375Q30.621471,11.4556441484375,29.74544,11.9472017484375L26.809315,6.7146925884375Q27.798443,6.1596612884375,28.810604,5.6478967684375L31.517916,11.0023765484375ZM34.224737000000005,9.7411770484375Q33.310848,10.1317815484375,32.414484,10.5610771484375L29.822809,5.1496796584375Q30.834833,4.6649926484375,31.866615,4.2239947484375L34.224737000000005,9.7411770484375ZM37.038679,8.6451132484375Q36.080006,8.9831044484375,35.137018,9.3626663484375L32.896624,3.7966392484375Q33.961302,3.3680923484375,35.043694,2.9864883484375L37.038679,8.6451132484375ZM39.924438,7.7321555484375Q38.95536,8.0043792484375,37.99897,8.318283548437499L36.127857,2.6174981484375Q37.207679999999996,2.2630782484375,38.301811,1.9557313484375003L39.924438,7.7321555484375ZM42.813923,7.0193949484375Q41.84621,7.2254929484375,40.888142,7.4725672484375L39.389839,1.6626539484374998Q40.471508,1.3837051484374996,41.564095,1.1510100484374997L42.813923,7.0193949484375ZM45.786846,6.4865266384375Q44.77702,6.6338577884375,43.774628,6.8253503484374995L42.648758,0.9319314484375001Q43.780502,0.7157244484375003,44.920639,0.5493826484374997L45.786846,6.4865266384375ZM48.796326,6.1471211484375Q47.793491,6.2272504384375,46.795059,6.3506773084375L46.058956,0.39600184843749986Q47.18623,0.2566509484374997,48.318424,0.16618394843750028L48.796326,6.1471211484375ZM51.750591,6.0054288953375Q50.768551,6.0212578514375,49.788052,6.0785394234375L49.438137,0.08875084843749992Q50.545155,0.024080248437499563,51.653889,0.006208848437499803L51.750591,6.0054288953375Z" fill-rule="evenodd" fill="url(#master_svg0_78_47346)" fill-opacity="1"/><ellipse cx="52.5" cy="52.4993896484375" rx="46.5" ry="46.5" fill="#000000" fill-opacity="1"/><ellipse cx="52.5" cy="52.4993896484375" rx="36.5" ry="36.5" fill="#004AB7" fill-opacity="1"/></g><g><path d="M264.955685,0.05685324843750017Q263.85302,0.005219948437500399,262.749161,-0.0000190515625000387L262.720684,5.9999133229175Q263.698391,6.0045534651375,264.675037,6.0502861884375L264.955685,0.05685324843750017ZM267.658226,6.2863751984375Q266.662617,6.1752469284375,265.663147,6.1071004084375L266.071297,0.12099834843750035Q267.199738,0.19793894843749982,268.323803,0.32340524843750007L267.658226,6.2863751984375ZM270.688042,6.7259697284375Q269.679451,6.5455511784375,268.663895,6.4097335384375L269.459236,0.4626812484374998Q270.605827,0.6160230484375004,271.74456,0.8197212484375003L270.688042,6.7259697284375ZM273.58746,7.3405784484375Q272.629772,7.1054457484375,271.662979,6.9111256584375L272.845291,1.0287675484375Q273.936859,1.2481651484374998,275.018112,1.5136384484374998L273.58746,7.3405784484375ZM276.477573,8.149897548437501Q275.520393,7.8482240484375,274.551086,7.5881291484375L276.106068,1.7931280484374996Q277.200451,2.0867850484375,278.281128,2.4273803484375L276.477573,8.149897548437501ZM279.354359,9.1614086484375Q278.404308,8.791928748437499,277.438976,8.4644377484375L279.36659199999997,2.7825093484375Q280.456474,3.1522564484375,281.529114,3.5694098484375L279.354359,9.1614086484375ZM282.095039,10.3296790484375Q281.19566299999997,9.9117655484375,280.279289,9.5325775484375L282.573402,3.9884791484375Q283.60794799999996,4.4165653484375,284.623413,4.8884186484375L282.095039,10.3296790484375ZM284.7752,11.6819248484375Q283.895004,11.2015795484375,282.994926,10.7596244484375L285.639412,5.3738365184375Q286.655624,5.8728072384375,287.649452,6.4151763884375L284.7752,11.6819248484375ZM287.38631399999997,13.219351248437501Q286.531616,12.6778507484375,285.654182,12.1740398484375L288.641792,6.9707522384375Q289.632477,7.5395808484375,290.597473,8.1509709484375L287.38631399999997,13.219351248437501ZM289.869354,14.9072580484375Q289.062897,14.3201074484375,288.23200199999997,13.768082648437499L291.552269,8.7704973484375Q292.49039500000003,9.3937664484375,293.400902,10.0566735484375L289.869354,14.9072580484375ZM292.23929599999997,16.7527196484375Q291.468811,16.111720648437498,290.671425,15.5045146484375L294.306427,10.7309665484375Q295.206718,11.416528248437501,296.07663,12.1402463484375L292.23929599999997,16.7527196484375ZM294.491608,18.7534676484375Q293.762344,18.062118648437497,293.003899,17.4029186484375L296.939857,12.8743181484375Q297.796219,13.618608948437501,298.619568,14.3991622484375L294.491608,18.7534676484375ZM296.611397,20.8977666484375Q295.928131,20.1602336484375,295.213623,19.452920648437498L299.434769,15.1888885484375Q300.241379,15.9873847484375,301.012856,16.8201296484375L296.611397,20.8977666484375ZM298.585419,23.1720566484375Q297.952324,22.3930756484375,297.286209,21.6421406484375L301.77475,17.6605506484375Q302.526794,18.508346648437502,303.241623,19.3879096484375L298.585419,23.1720566484375ZM300.402283,25.5611876484375Q299.822899,24.7459886484375,299.209,23.9564536484375L303.945625,20.2734686484375Q304.638786,21.1649326484375,305.292908,22.0852856484375L300.402283,25.5611876484375ZM302.065857,28.0700396484375Q301.53688,27.2133106484375,300.971313,26.3802796484375L305.935318,23.0100226484375Q306.573891,23.9505636484375,307.17114300000003,24.9178906484375L302.065857,28.0700396484375ZM303.570778,30.6947686484375Q303.098381,29.8049776484375,302.587891,28.9364796484375L307.760567,25.8961676484375Q308.336853,26.8766406484375,308.870193,27.8811986484375L303.570778,30.6947686484375ZM304.889824,33.3851796484375Q304.479851,32.4759886484375,304.03128100000004,31.5852106484375L309.390137,28.8865736484375Q309.896675,29.8924336484375,310.35949700000003,30.9188636484375L304.889824,33.3851796484375ZM306.03215,36.1530796484375Q305.679962,35.215169648437495,305.287712,34.293296648437504L310.808708,31.9441206484375Q311.251556,32.9849016484375,311.649208,34.0438956484375L306.03215,36.1530796484375ZM307.007584,39.0336986484375Q306.714661,38.0655026484375,306.379906,37.1109576484375L312.04184,35.1253756484375Q312.41974600000003,36.202983648437495,312.750488,37.2961306484375L307.007584,39.0336986484375ZM307.78148699999997,41.9241026484375Q307.555229,40.9552956484375,307.287735,39.9970516484375L313.066803,38.3838616484375Q313.36879,39.4656946484375,313.624252,40.5594866484375L307.78148699999997,41.9241026484375ZM308.366669,44.8509516484375Q308.202202,43.8646736484375,307.995491,42.8863756484375L313.86589100000003,41.6460416484375Q314.099228,42.7504196484375,314.284935,43.8639946484375L308.366669,44.8509516484375ZM308.769371,47.8738596484375Q308.668587,46.8657566484375,308.523994,45.8630026484375L314.462578,45.0067286484375Q314.625832,46.1389386484375,314.739609,47.2769466484375L308.769371,47.8738596484375ZM308.970627,50.8469276484375Q308.935463,49.8579106484375,308.858246,48.8712886484375L314.839943,48.4030916484375Q314.92713200000003,49.5169986484375,314.966835,50.6337356484375L308.970627,50.8469276484375ZM308.959061,54.4502216484375Q309,53.4752346484375,309,52.4993896484375Q309,52.1616406484375,308.995094,51.8239286484375L314.994461,51.7367786484375Q315,52.1180836484375,315,52.4993896484375Q315.000008,53.6011926484375,314.95378900000003,54.7019386484375L308.959061,54.4502216484375ZM308.73794599999997,57.4291416484375Q308.843964,56.4347726484375,308.907127,55.4367676484375L314.895142,55.8157956484375Q314.82381399999997,56.9426766484375,314.70414,58.0652006484375L308.73794599999997,57.4291416484375ZM308.314201,60.4560656484375Q308.489235,59.4482386484375,308.619781,58.4336856484375L314.570724,59.1993296484375Q314.423355,60.3447346484375,314.2257,61.4827806484375L308.314201,60.4560656484375ZM307.71214299999997,63.3673246484375Q307.942299,62.4098586484375,308.131706,61.4435076484375L314.019676,62.5975986484375Q313.80582400000003,63.6886216484375,313.545959,64.7696766484375L307.71214299999997,63.3673246484375ZM306.918022,66.25763364843749Q307.214584,65.3001866484375,307.46962,64.3308526484375L313.272156,65.8574756484375Q312.98423,66.95185864843751,312.649368,68.03292064843751L306.918022,66.25763364843749ZM305.921982,69.13613864843751Q306.286285,68.1853026484375,306.60862,67.2194326484375L312.30004099999996,69.1188426484375Q311.93618,70.2091296484375,311.524857,71.2827296484375L305.921982,69.13613864843751ZM304.764771,71.8885426484375Q305.17791,70.9879686484375,305.552315,70.0706176484375L311.107468,72.3378376484375Q310.684776,73.3735126484375,310.218277,74.3903886484375L304.764771,71.8885426484375ZM303.426735,74.5731816484375Q303.902374,73.6913066484375,304.339584,72.7897646484375L309.738297,75.4077526484375Q309.244568,76.4258956484375,308.707535,77.4215466484375L303.426735,74.5731816484375ZM301.90322100000003,77.1902006484375Q302.44014,76.3333506484375,302.939308,75.4539646484375L308.157333,78.4157486484375Q307.59371899999996,79.4087066484375,306.987465,80.3761746484375L301.90322100000003,77.1902006484375ZM300.225693,79.6843566484375Q300.808632,78.8753886484375,301.356354,78.0421676484375L306.370071,81.3380356484375Q305.751694,82.2787246484375,305.093521,83.1920926484375L300.225693,79.6843566484375ZM298.392448,82.0625836484375Q299.029465,81.2891766484375,299.632584,80.4890516484375L304.42393500000003,84.1005556484375Q303.74294299999997,85.0040206484375,303.023643,85.8772816484375L298.392448,82.0625836484375ZM296.403114,84.3243636484375Q297.090775,83.5917966484375,297.746155,82.8302156484375L302.294044,86.7438736484375Q301.554153,87.6036686484375,300.777695,88.4308246484375L296.403114,84.3243636484375ZM294.269264,86.4547116484375Q295.003448,85.7677916484375,295.70726,85.0497746484375L299.992096,89.2497936484375Q299.19741799999997,90.0605166484375,298.368507,90.8360596484375L294.269264,86.4547116484375ZM292.004333,88.4402316484375Q292.78035,87.8031916484375,293.528145,87.1332546484375L297.531738,91.6021726484375Q296.687439,92.3585586484375,295.811356,93.0777516484375L292.004333,88.4402316484375ZM289.62336700000003,90.2693936484375Q290.436005,89.6858216484375,291.222786,89.0678406484375L294.929031,93.7862856484375Q294.040642,94.4840926484375,293.123123,95.1429676484375L289.62336700000003,90.2693936484375ZM287.125526,91.9434436484375Q287.97801200000004,91.4112246484375,288.806717,90.8426666484375L292.201118,95.7901916484375Q291.265579,96.4320526484375,290.30304,97.0329896484375L287.125526,91.9434436484375ZM284.50656100000003,93.4623186484375Q285.394623,92.9852216484375,286.261169,92.4700846484375L289.327095,97.6276096484375Q288.348633,98.2092666484375,287.346184,98.7478256484375L284.50656100000003,93.4623186484375ZM281.820473,94.7956006484375Q282.728409,94.3808596484375,283.617722,93.9275436484375L286.342468,99.2731776484375Q285.338455,99.7849346484375,284.31356,100.2531276484375L281.820473,94.7956006484375ZM279.064171,95.9491116484375Q279.99688,95.5935366484375,280.913475,95.1982646484375L283.289337,100.7078326484375Q282.254494,101.1540836484375,281.201523,101.5555116484375L279.064171,95.9491116484375ZM276.185123,96.9399946484375Q277.153004,96.6419446484375,278.106987,96.3020396484375L280.120872,101.9539646484375Q279.043671,102.3377916484375,277.950802,102.6743006484375L276.185123,96.9399946484375ZM273.294773,97.7290576484375Q274.263756,97.4977946484375,275.221943,97.2252426484375L276.863537,102.9963076484375Q275.781677,103.3040466484375,274.687603,103.5651546484375L273.294773,97.7290576484375ZM270.379593,98.3269116484375Q271.359943,98.1583556484375,272.332188,97.9480206484375L273.600918,103.8123476484375Q272.503075,104.0498656484375,271.396236,104.2401576484375L270.379593,98.3269116484375ZM267.353653,98.7453846484375Q268.36296500000003,98.6394576484375,269.366695,98.4895936484375L270.252758,104.4238056484375Q269.119419,104.5930256484375,267.979866,104.7126156484375L267.353653,98.7453846484375ZM264.376175,98.9615246484375Q265.366837,98.9215236484375,266.354889,98.8393246484375L266.852375,104.8186566484375Q265.73674,104.9114756484375,264.618198,104.9566346484375L264.376175,98.9615246484375ZM261.454357,98.9876326484375Q261.977112,98.9993896484375,262.5,98.9993896484375Q262.948757,98.9993896484375,263.397434,98.9907306484375L263.51321,104.9896166484375Q263.006817,104.9993896484375,262.5,104.9993896484375Q261.909668,104.9993816484375,261.31945,104.9861066484375L261.454357,98.9876326484375ZM258.493744,98.8264846484375Q259.482735,98.9120106484375,260.474476,98.9552536484375L260.21315,104.9495616484375Q259.093418,104.9007496484375,257.976803,104.8041836484375L258.493744,98.8264846484375ZM255.479652,98.4663846484375Q256.484013,98.6197736484375,257.494118,98.7291566484375L256.848248,104.6942906484375Q255.707733,104.5708006484375,254.573734,104.3975986484375L255.479652,98.4663846484375ZM252.521648,97.9161526484375Q253.489838,98.1288676484375,254.466209,98.3001326484375L253.429577,104.2098996484375Q252.32711,104.0165176484375,251.234093,103.7763676484375L252.521648,97.9161526484375ZM249.631672,97.1833496484375Q250.589806,97.4592746484375,251.558887,97.6938786484375L250.147179,103.5254366484375Q249.05307,103.2605746484375,247.971222,102.9490126484375L249.631672,97.1833496484375ZM246.747396,96.2498776484375Q247.700993,96.5932316484375,248.668644,96.8946986484375L246.883923,102.6231236484375Q245.79144300000002,102.2827526484375,244.714773,101.8950886484375L246.747396,96.2498776484375ZM243.948418,95.1384426484375Q244.861473,95.5356976484375,245.790695,95.8935016484375L243.634714,101.4927596484375Q242.585451,101.0887446484375,241.554632,100.6402436484375L243.948418,95.1384426484375ZM241.246796,93.8581996484375Q242.135101,94.3146816484375,243.042189,94.7325976484375L240.531458,100.1820216484375Q239.507298,99.7101596484375,238.504463,99.1948316484375L241.246796,93.8581996484375ZM238.60693,92.3913806484375Q239.472157,92.9096066484375,240.359037,93.3898236484375L237.502089,98.6659926484375Q236.500845,98.1238406484375,235.523989,97.5387646484375L238.60693,92.3913806484375ZM236.068527,90.7567746484375Q236.894329,91.3273086484375,237.743979,91.8616716484375L234.549557,96.9406276484375Q233.590471,96.3374096484375,232.658089,95.6932606484375L236.068527,90.7567746484375ZM233.657665,88.9736256484375Q234.4426,89.5943146484375,235.253511,90.1806716484375L231.737874,95.0428006484375Q230.822321,94.3807986484375,229.936036,93.6799466484375L233.657665,88.9736256484375ZM231.358354,87.0312266484375Q232.104031,87.7036976484375,232.878042,88.3433536484375L229.05588,92.9683986484375Q228.18193300000001,92.2461626484375,227.340042,91.4869156484375L231.358354,87.0312266484375ZM229.186015,84.9405436484375Q229.887473,85.6608736484375,230.619411,86.3502116484375L226.505788,90.7180636484375Q225.6794243,89.9397966484375,224.8874264,89.1264876484375L229.186015,84.9405436484375ZM227.154559,82.7144466484375Q227.807378,83.4781116484375,228.49257,84.2128676484375L224.1045351,88.3049546484375Q223.3309307,87.4754026484375,222.5938239,86.6131206484375L227.154559,82.7144466484375ZM225.2761383,80.3675456484375Q225.8765182,81.1694796484375,226.510879,81.9448166484375L221.8671131,85.7442166484375Q221.1509032,84.8688356484375,220.4730701,83.9634556484375L225.2761383,80.3675456484375ZM223.5604343,77.9151386484375Q224.1054726,78.7501906484375,224.6858072,79.5611116484375L219.8065615,83.0529476484375Q219.1513143,82.1373516484375,218.5359845,81.1946106484375L223.5604343,77.9151386484375ZM221.9853215,75.3206706484375Q222.4813805,76.2013246484375,223.0152378,77.0595936484375L217.9204469,80.2286836484375Q217.3176861,79.2596516484375,216.75760412,78.2653276484375L221.9853215,75.3206706484375ZM220.5944777,72.6532286484375Q221.0285182,73.5557176484375,221.5010109,74.4386906484375L216.21082067,77.2695696484375Q215.67732871,76.2726136484375,215.1873107,75.2537226484375L220.5944777,72.6532286484375ZM219.3912914,69.93180864843751Q219.7625086,70.8497926484375,220.1724682,71.7511446484375L214.7108521,74.2352446484375Q214.2480148,73.2176356484375,213.8288779,72.1811526484375L219.3912914,69.93180864843751ZM218.3429277,67.0734406484375Q218.6618237,68.0396466484375,219.0226777,68.9909786484375L213.4127176,71.1189656484375Q213.0052662,70.0448146484375,212.6452262,68.95391864843751L218.3429277,67.0734406484375ZM217.4921212,64.1844596484375Q217.7437823,65.1537936484375,218.0369437,66.1113926484375L212.2997687,67.8677676484375Q211.9687858,66.7866176484375,211.6846538,65.69222264843751L217.4921212,64.1844596484375ZM216.83995157,61.2976836484375Q217.026098,62.2637176484375,217.2529367,63.2210156484375L211.4145932,64.6044086484375Q211.1585031,63.5236286484375,210.9483385,62.4329836484375L216.83995157,61.2976836484375ZM216.36080143,58.2807696484375Q216.4878411,59.2946276484375,216.65929359,60.3019296484375L210.7443681,61.3087236484375Q210.550787,60.1714326484375,210.4073567,59.0267376484375L216.36080143,58.2807696484375ZM216.083599292,55.2864566484375Q216.14346471,56.2834666484375,216.24608618,57.2769886484375L210.2778401,57.8934626484375Q210.1619735,56.7717286484375,210.0943866,55.6460606484375L216.083599292,55.2864566484375ZM216.00023257053,52.3523216484375Q216,52.4258536484375,216,52.4993896484375Q216,53.4005166484375,216.034912799,54.3009646484375L210.0394158,54.5334166484375Q210,53.5167926484375,210,52.4993896484375L210.0002403,52.3428346484375L216.00023257053,52.3523216484375ZM216.10263811,49.4115406484375Q216.037211955,50.3946186484375,216.013485325,51.3795886484375L210.0152254,51.2350996484375Q210.0420136,50.1230396484375,210.1158819,49.0131076484375L216.10263811,49.4115406484375ZM216.40016955,46.4120556484375Q216.26808578,47.4123346484375,216.17951432,48.4174046484375L210.2026777,47.8906976484375Q210.3026767,46.7559466484375,210.4518051,45.6265906484375L216.40016955,46.4120556484375ZM216.89713073,43.4093776484375Q216.69928145,44.4019506484375,216.5448069,45.4021916484375L210.6151047,44.4864196484375Q210.7895122,43.3571126484375,211.0128908,42.2364696484375L216.89713073,43.4093776484375ZM217.5691595,40.5215106484375Q217.3137146,41.4797246484375,217.0993538,42.4479556484375L211.2412047,41.1510006484375Q211.4832253,40.0578306484375,211.7716317,38.9759746484375L217.5691595,40.5215106484375ZM218.4403598,37.6333846484375Q218.1178985,38.5890926484375,217.8371817,39.5578806484375L212.0742388,37.8880046484375Q212.3911815,36.7941966484375,212.7552428,35.7151946484375L218.4403598,37.6333846484375ZM219.5045619,34.7894406484375Q219.119694,35.7238066484375,218.7757809,36.674009648437504L213.1339436,34.6320346484375Q213.5222254,33.559236648437505,213.956764,32.5042836484375L219.5045619,34.7894406484375ZM220.7268348,32.0726256484375Q220.2896066,32.9667666484375,219.8910391,33.8787976484375L214.3931074,31.4761426484375Q214.8431048,30.4464266484375,215.33674955,29.4369126484375L220.7268348,32.0726256484375ZM222.1365371,29.4117126484375Q221.6371808,30.2847216484375,221.1760383,31.1785026484375L215.84391594,28.4274156484375Q216.36455482,27.4183196484375,216.92834854,26.4326576484375L222.1365371,29.4117126484375ZM223.7268872,26.8304256484375Q223.1686134,27.6737006484375,222.647531,28.5404506484375L217.5052819,25.4489666484375Q218.0935957,24.4703906484375,218.7238998,23.5183086484375L223.7268872,26.8304256484375ZM225.4591055,24.3885006484375Q224.8550386,25.1844616484375,224.2857218,26.0056366484375L219.3548613,22.5870666484375Q219.9976115,21.6599786484375,220.6796227,20.7613056484375L225.4591055,24.3885006484375ZM227.353522,22.0531236484375Q226.696612,22.8114456484375,226.073022,23.5973966484375L221.3727574,19.868118648437502Q222.0768189,18.9807416484375,222.8184996,18.1245646484375L227.353522,22.0531236484375ZM229.399827,19.840109648437497Q228.693779,20.5556896484375,228.019316,21.3011136484375L223.570179,17.275550648437502Q224.3316889,16.4339136484375,225.1288528,15.6259937484375L229.399827,19.840109648437497ZM231.58569,17.7638826484375Q230.834859,18.432115648437502,230.113605,19.1321686484375L225.9347343,14.8267021484375Q226.749043,14.0363369484375,227.596729,13.281897548437499L231.58569,17.7638826484375ZM233.897028,15.8371486484375Q233.106316,16.4540416484375,232.342937,17.1044526484375L228.451681,12.537384548437501Q229.313585,11.8030209484375,230.206343,11.1065201484375L233.897028,15.8371486484375ZM236.318279,14.0706577484375Q235.49304,14.6328973484375,234.692699,15.2300443484375L231.104653,10.4211082484375Q232.00827,9.7469019484375,232.939987,9.1121158484375L236.318279,14.0706577484375ZM238.870935,12.4504537484375Q237.998285,12.965321048437499,237.148891,13.5177106484375L233.877758,8.4878311484375Q234.836775,7.8641443484375,235.82205199999999,7.2828331484375L238.870935,12.4504537484375ZM241.517916,11.0023765484375Q240.62147099999999,11.4556441484375,239.74544,11.9472017484375L236.809315,6.7146925884375Q237.798443,6.1596612884375,238.810604,5.6478967684375L241.517916,11.0023765484375ZM244.224737,9.7411770484375Q243.310848,10.1317815484375,242.41448400000002,10.5610771484375L239.822809,5.1496796584375Q240.834833,4.6649926484375,241.866615,4.2239947484375L244.224737,9.7411770484375ZM247.038679,8.6451132484375Q246.080006,8.9831044484375,245.137018,9.3626663484375L242.896624,3.7966392484375Q243.961302,3.3680923484375,245.043694,2.9864883484375L247.038679,8.6451132484375ZM249.924438,7.7321555484375Q248.95535999999998,8.0043792484375,247.99896999999999,8.318283548437499L246.127857,2.6174981484375Q247.20768,2.2630782484375,248.301811,1.9557313484375003L249.924438,7.7321555484375ZM252.813923,7.0193949484375Q251.84620999999999,7.2254929484375,250.88814200000002,7.4725672484375L249.389839,1.6626539484374998Q250.471508,1.3837051484374996,251.564095,1.1510100484374997L252.813923,7.0193949484375ZM255.786846,6.4865266384375Q254.77702,6.6338577884375,253.774628,6.8253503484374995L252.648758,0.9319314484375001Q253.780502,0.7157244484375003,254.920639,0.5493826484374997L255.786846,6.4865266384375ZM258.796326,6.1471211484375Q257.793491,6.2272504384375,256.795059,6.3506773084375L256.058956,0.39600184843749986Q257.18623,0.2566509484374997,258.318424,0.16618394843750028L258.796326,6.1471211484375ZM261.750591,6.0054288953375Q260.768551,6.0212578514375,259.788052,6.0785394234375L259.438137,0.08875084843749992Q260.545155,0.024080248437499563,261.653889,0.006208848437499803L261.750591,6.0054288953375Z" fill-rule="evenodd" fill="url(#master_svg1_78_47346)" fill-opacity="1"/><ellipse cx="262.5" cy="52.4993896484375" rx="46.5" ry="46.5" fill="#000000" fill-opacity="1"/><ellipse cx="262.5" cy="52.4993896484375" rx="36.5" ry="36.5" fill="#004AB7" fill-opacity="1"/></g><g><path d="M84.99962014341,93.9993896484375Q85.59076667,93.5413476484375,86.1686268,93.06665464843749Q86.7464869,92.5919566484375,87.3105917,92.10099364843751Q87.8746965,91.6100306484375,88.4245882,91.1032026484375Q88.9744799,90.5963706484375,89.5097122,90.07407764843751Q90.0449448,89.55179564843749,90.565084,89.0144726484375Q91.0852227,88.4771496484375,91.5898457,87.9252316484375Q92.0944691,87.3733136484375,92.5831671,86.80724364843749Q93.0718651,86.2411726484375,93.544241,85.6614146484375Q94.0166168,85.0816576484375,94.4722881,84.4886856484375Q94.9279594,83.89570664843751,95.366556,83.2899896484375Q95.805153,82.6842726484375,96.22631799999999,82.06631064843751Q96.647485,81.4483486484375,97.050878,80.8186376484375Q97.454271,80.18893064843749,97.839565,79.5479886484375Q98.224859,78.90704364843751,98.59174,78.25538664843751Q98.958622,77.60372964843751,99.306793,76.9418866484375Q99.654963,76.2800446484375,99.984141,75.6085506484375Q100.31332,74.93706164843749,100.62324,74.2564656484375Q100.933159,73.57587464843749,101.223566,72.88673064843749Q101.513973,72.1975826484375,101.784634,71.5004426484375Q102.055294,70.8033026484375,102.305986,70.09873764843749Q102.556681,69.3941726484375,102.787205,68.6827546484375Q103.017729,67.9713366484375,103.227896,67.2536396484375Q103.438063,66.5359416484375,103.627701,65.8125496484375Q103.817341,65.0891566484375,103.986298,64.3606566484375Q104.15525600000001,63.6321566484375,104.30339599999999,62.8991416484375Q104.451534,62.1661246484375,104.578735,61.429185648437496Q104.70593600000001,60.6922476484375,104.812094,59.9519846484375Q104.918251,59.2117196484375,105.003283,58.468732648437495Q105.088314,57.7257466484375,105.15214900000001,56.9806406484375Q105.215981,56.2355346484375,105.258566,55.4889126484375Q105.301151,54.7422906484375,105.322451,53.9947586484375Q105.34375,53.2472256484375,105.34375,52.4993896484375Q105.34375,49.0812266484375,104.900532,45.6919193484375Q104.45731,42.3026125484375,103.578354,38.9993896484375L212.10915,38.9993896484375Q211.23019,42.3026125484375,210.78698,45.6919193484375Q210.34376,49.0812266484375,210.34375,52.4993896484375Q210.34376,53.2203056484375,210.36356,53.9409496484375Q210.38335,54.6615926484375,210.42293,55.3814196484375Q210.46251,56.1012476484375,210.52183,56.8197176484375Q210.58114999999998,57.5381866484375,210.66016000000002,58.2547566484375Q210.73919999999998,58.9713286484375,210.83787999999998,59.6854576484375Q210.93657000000002,60.3995856484375,211.05481,61.110736648437495Q211.17307,61.821887648437496,211.31079,62.529523648437504Q211.44852,63.2371596484375,211.60562,63.940746648437496Q211.76274,64.6443346484375,211.9391,65.3433416484375Q212.11548,66.04235064843749,212.31097,66.7362516484375Q212.50646999999998,67.4301526484375,212.72093999999998,68.1184256484375Q212.93541,68.8066976484375,213.1687,69.4888186484375Q213.40201,70.1709446484375,213.65395,70.8464046484375Q213.90588,71.5218656484375,214.17627,72.1901546484375Q214.44666,72.8584446484375,214.73529,73.5190546484375Q215.02393,74.1796646484375,215.3306,74.83209964843749Q215.63727,75.4845386484375,215.96173,76.1283116484375Q216.28619,76.7720796484375,216.6282,77.4066966484375Q216.97023,78.0413136484375,217.32956,78.6663016484375Q217.68887,79.2912906484375,218.0652,79.9061736484375Q218.44156,80.5210646484375,218.83463,81.1253856484375Q219.22772,81.7297056484375,219.63724,82.3230056484375Q220.04677,82.9163056484375,220.47244,83.4981346484375Q220.8981,84.0799636484375,221.33958,84.6498866484375Q221.78107,85.2198146484375,222.23804,85.77740064843749Q222.69501,86.3349876484375,223.16711,86.8798136484375Q223.63922,87.42464464843749,224.1261,87.9563066484375Q224.61299,88.48796064843751,225.11429,89.0060496484375Q225.6156,89.5241396484375,226.13092,90.0282746484375Q226.64626,90.5324016484375,227.17523,91.02219364843751Q227.70422,91.5119856484375,228.24644,91.9870686484375Q228.78868,92.46214664843751,229.34375,92.9221536484375L229.34375,93.9993896484375L84.99962014341,93.9993896484375Z" fill-rule="evenodd" fill="#012AA3" fill-opacity="1"/><path d="M88.1745179,93.9993896484375L229.34375,93.9993896484375L229.34375,92.9221536484375Q228.79588,92.4681126484375,228.26051,91.9993896484375Q227.209,91.0787506484375,226.20795,90.1034736484375Q225.20689,89.1281926484375,224.25914,88.1010326484375Q223.3114,87.07387564843751,222.41963,85.9977456484375Q221.52788,84.9216156484375,220.69463,83.7995686484375Q219.86139,82.67752064843751,219.08904,81.5127296484375Q218.31668,80.34793864843749,217.60738,79.14369964843749Q216.89807,77.93946464843751,216.25385,76.6991956484375Q215.60962,75.4589306484375,215.0323,74.1861416484375Q214.45499,72.9133566484375,213.9462,71.6116596484375Q213.43741,70.3099596484375,212.9986,68.9830326484375Q212.5598,67.6561086484375,212.19221,66.30771664843749Q211.82461999999998,64.9593236484375,211.52928,63.5932826484375Q211.23396,62.2272416484375,211.01172,60.8474236484375Q210.78949,59.4676056484375,210.64098,58.0779186484375Q210.49248,56.6882326484375,210.41811,55.2926106484375Q210.34375,53.8969896484375,210.34375,52.4993896484375Q210.34375,49.5979386484375,210.66348,46.7141575484375Q210.9832,43.8303766484375,211.61876,40.9993896484375Q211.84434,39.9945799684375,212.10915,38.9993896484375L103.578354,38.9993896484375Q103.843164,39.9945799684375,104.068745,40.9993896484375Q104.7043,43.8303766484375,105.024025,46.7141571484375Q105.34375,49.5979386484375,105.34375,52.4993896484375Q105.34375,53.8969896484375,105.269394,55.2926106484375Q105.19503399999999,56.6882306484375,105.046528,58.0779166484375Q104.89802399999999,59.4676056484375,104.675791,60.8474236484375Q104.453558,62.2272416484375,104.15822800000001,63.5932806484375Q103.8629,64.9593196484375,103.49531,66.3077146484375Q103.12772,67.65610464843749,102.688908,68.9830286484375Q102.250099,70.3099556484375,101.741312,71.6116566484375Q101.232525,72.9133526484375,100.655201,74.18613864843749Q100.07788,75.45892364843749,99.433659,76.6991916484375Q98.789436,77.9394606484375,98.08014,79.1436956484375Q97.37084300000001,80.3479306484375,96.59848,81.51272564843751Q95.826118,82.67752064843751,94.992877,83.7995686484375Q94.1596375,84.9216156484375,93.2678785,85.9977456484375Q92.376121,87.07387564843751,91.4283714,88.1010326484375Q90.4806223,89.1281926484375,89.4795661,90.10346964843751Q88.4785099,91.0787506484375,87.4269826,91.9993896484375Q86.2432688,93.03575864843751,84.99962014341,93.9993896484375L88.1745179,93.9993896484375ZM90.4065037,91.9993896484375L225.28746,91.9993896484375Q217.90207,85.0045736484375,213.52057,75.6828726484375Q208.34375,64.6691166484375,208.34375,52.4993896484375Q208.34375,46.6692147484375,209.57016,40.9993896484375L106.117344,40.9993896484375Q107.34375,46.6691966484375,107.34375,52.4993896484375Q107.34375,65.1393316484375,101.779966,76.4888956484375Q97.440184,85.3416216484375,90.4065037,91.9993896484375Z" fill-rule="evenodd" fill="#1845CB" fill-opacity="1"/></g></g></svg>